<svg xmlns="http://www.w3.org/2000/svg" viewBox="0 0 111.71 128.34"><defs><style>.cls-1{fill:none;stroke:#fff;stroke-miterlimit:10;stroke-width:3.9px;}</style></defs><title>Asset 6</title><g id="Layer_2" data-name="Layer 2"><g id="Layer_1-2" data-name="Layer 1"><ellipse class="cls-1" cx="55.85" cy="64.17" rx="19.16" ry="62.22"/><path class="cls-1" d="M44.53,48.71C72.25,28.4,99.79,18.87,106.05,27.4S94.9,59.33,67.18,79.63s-55.27,29.84-61.52,21.3S16.81,69,44.53,48.71Z"/><path class="cls-1" d="M45.79,80.48c-29.24-18.05-48.44-40-42.88-49s33.77-1.68,63,16.37,48.44,40,42.88,49S75,98.53,45.79,80.48Z"/><path class="cls-1" d="M64.21,64.17a8.36,8.36,0,1,1-8.36-8.35A8.35,8.35,0,0,1,64.21,64.17Z"/></g></g></svg>