<svg xmlns="http://www.w3.org/2000/svg" viewBox="0 0 117.83 124"><defs><style>.cls-1{fill:none;stroke:#fff;stroke-miterlimit:10;stroke-width:3.9px;}</style></defs><title>Asset 8</title><g id="Layer_2" data-name="Layer 2"><g id="Layer_1-2" data-name="Layer 1"><path class="cls-1" d="M78.56,19.83A17.88,17.88,0,1,1,60.69,2,17.87,17.87,0,0,1,78.56,19.83Z"/><line class="cls-1" x1="60.69" y1="124" x2="60.69" y2="55.08"/><path class="cls-1" d="M37.71,46.39A17.88,17.88,0,1,1,19.83,28.51,17.88,17.88,0,0,1,37.71,46.39Z"/><line class="cls-1" x1="19.83" y1="124" x2="19.83" y2="81.64"/><path class="cls-1" d="M115.88,46.39A17.88,17.88,0,1,1,98,28.51,17.87,17.87,0,0,1,115.88,46.39Z"/><line class="cls-1" x1="98" y1="124" x2="98" y2="81.64"/></g></g></svg>