<svg xmlns="http://www.w3.org/2000/svg" viewBox="0 0 917.33 375.29"><defs><style>.cls-1{fill:#082158;}.cls-2{fill:#6e9ed3;}</style></defs><title>adc-logo</title><g id="Layer_2" data-name="Layer 2"><g id="Layer_1-2" data-name="Layer 1"><path class="cls-1" d="M238.44,0H162.31L0,375.29H84.17l34.31-84.17h158.7l34.31,84.17h86.32ZM148,218.2,197.83,96.5l49.86,121.7Z"/><path class="cls-1" d="M491.08,74.52c3.42,0,6.79.13,10.09.36A200.68,200.68,0,0,1,531.42,38a204.89,204.89,0,0,1,33.72-26.14A228.68,228.68,0,0,0,491.08,0H264.71l31.62,74.52Z"/><path class="cls-1" d="M669.36,99c-35.73,6.79-60.09,30.84-67,66.13a135.77,135.77,0,0,1,1.85,22.51v1.07c0,21.06-4.58,40-13,56.09-13.35,25.57-36.37,43.85-66.05,51.69a133.42,133.42,0,0,1-34.1,4.27H385.6l35.2,74.52h70.28c37.37,0,71.07-8.24,99.69-22.85a182.45,182.45,0,0,0,65.72-56.13c21.81-30.43,34-67.77,34-108.66v-1.08c0-32-7.48-61.67-21.16-87.56"/><path class="cls-2" d="M577.83,187.65h0v-1.08c0-21,4.58-40,13-56.09,13.36-25.57,36.38-43.85,66.06-51.69A133.34,133.34,0,0,1,691,74.52H850.26L815.07,0H691c-37.36,0-71.07,8.24-99.68,22.85A182.37,182.37,0,0,0,525.55,79c-21.81,30.43-34,67.78-34,108.67v1.07c0,40.65,12.09,77.65,33.67,107.78,29.68-7.84,52.7-26.12,66.05-51.69-8.66-16.4-13.4-35.75-13.4-57.16"/><path class="cls-2" d="M885.71,300.77H691a130.32,130.32,0,0,1-34.46-4.46,182.45,182.45,0,0,1-65.72,56.13c28.72,14.62,62.6,22.85,100.18,22.85H917.33Z"/></g></g></svg>